<mxfile host="app.diagrams.net" modified="2022-07-04T11:30:12.699Z" agent="5.0 (Windows NT 10.0; WOW64) AppleWebKit/537.36 (KHTML, like Gecko) Chrome/101.0.4951.80 Safari/537.36" etag="NFT3W1d3nVU-wWeMsQyQ" version="17.4.6" type="github">
  <diagram id="vBMhlzHLtAM84S8c8hDt" name="Page-1">
    <mxGraphModel dx="3555" dy="1843" grid="1" gridSize="10" guides="1" tooltips="1" connect="1" arrows="1" fold="1" page="1" pageScale="1" pageWidth="850" pageHeight="1100" math="0" shadow="0">
      <root>
        <mxCell id="0" />
        <mxCell id="1" parent="0" />
        <mxCell id="nIRFVhxDrKVk5EA2-0tX-94" value="Group" style="html=1;align=center;verticalAlign=top;rounded=1;absoluteArcSize=1;arcSize=10;dashed=0;" vertex="1" parent="1">
          <mxGeometry x="550" y="30" width="690" height="1360" as="geometry" />
        </mxCell>
        <mxCell id="nIRFVhxDrKVk5EA2-0tX-1" value="Group Owner" style="shape=umlActor;verticalLabelPosition=bottom;verticalAlign=top;html=1;" vertex="1" parent="1">
          <mxGeometry x="280" y="260" width="30" height="60" as="geometry" />
        </mxCell>
        <mxCell id="nIRFVhxDrKVk5EA2-0tX-2" value="Group Admin" style="shape=umlActor;verticalLabelPosition=bottom;verticalAlign=top;html=1;" vertex="1" parent="1">
          <mxGeometry x="280" y="760" width="30" height="60" as="geometry" />
        </mxCell>
        <mxCell id="nIRFVhxDrKVk5EA2-0tX-3" value="Group Member" style="shape=umlActor;verticalLabelPosition=bottom;verticalAlign=top;html=1;" vertex="1" parent="1">
          <mxGeometry x="1510" y="1000" width="30" height="60" as="geometry" />
        </mxCell>
        <mxCell id="nIRFVhxDrKVk5EA2-0tX-24" value="Tạo nhóm" style="ellipse;whiteSpace=wrap;html=1;verticalAlign=middle;" vertex="1" parent="1">
          <mxGeometry x="720" y="80" width="120" height="60" as="geometry" />
        </mxCell>
        <mxCell id="nIRFVhxDrKVk5EA2-0tX-26" value="Cài đặt nhóm" style="ellipse;whiteSpace=wrap;html=1;verticalAlign=middle;" vertex="1" parent="1">
          <mxGeometry x="710" y="320" width="120" height="60" as="geometry" />
        </mxCell>
        <mxCell id="nIRFVhxDrKVk5EA2-0tX-28" value="Quản lý thành viên" style="ellipse;whiteSpace=wrap;html=1;verticalAlign=middle;" vertex="1" parent="1">
          <mxGeometry x="720" y="590" width="120" height="60" as="geometry" />
        </mxCell>
        <mxCell id="nIRFVhxDrKVk5EA2-0tX-30" value="Quản lý group&#39;s feed" style="ellipse;whiteSpace=wrap;html=1;verticalAlign=middle;" vertex="1" parent="1">
          <mxGeometry x="720" y="820" width="120" height="60" as="geometry" />
        </mxCell>
        <mxCell id="nIRFVhxDrKVk5EA2-0tX-32" value="Xóa nhóm" style="ellipse;whiteSpace=wrap;html=1;verticalAlign=middle;" vertex="1" parent="1">
          <mxGeometry x="720" y="200" width="120" height="60" as="geometry" />
        </mxCell>
        <mxCell id="nIRFVhxDrKVk5EA2-0tX-35" value="&amp;lt;&amp;lt;extend&amp;gt;&amp;gt;" style="html=1;verticalAlign=bottom;labelBackgroundColor=none;endArrow=open;endFill=0;dashed=1;rounded=0;exitX=0.5;exitY=0;exitDx=0;exitDy=0;entryX=0.5;entryY=1;entryDx=0;entryDy=0;" edge="1" parent="1" source="nIRFVhxDrKVk5EA2-0tX-32" target="nIRFVhxDrKVk5EA2-0tX-24">
          <mxGeometry width="160" relative="1" as="geometry">
            <mxPoint x="930" y="200" as="sourcePoint" />
            <mxPoint x="1090" y="200" as="targetPoint" />
          </mxGeometry>
        </mxCell>
        <mxCell id="nIRFVhxDrKVk5EA2-0tX-36" value="Cài đặt group&#39;s privacy" style="ellipse;whiteSpace=wrap;html=1;" vertex="1" parent="1">
          <mxGeometry x="1000" y="180" width="120" height="60" as="geometry" />
        </mxCell>
        <mxCell id="nIRFVhxDrKVk5EA2-0tX-38" value="&amp;lt;&amp;lt;include&amp;gt;&amp;gt;" style="html=1;verticalAlign=bottom;labelBackgroundColor=none;endArrow=open;endFill=0;dashed=1;rounded=0;exitX=1;exitY=0.5;exitDx=0;exitDy=0;entryX=0;entryY=0.5;entryDx=0;entryDy=0;" edge="1" parent="1" source="nIRFVhxDrKVk5EA2-0tX-26" target="nIRFVhxDrKVk5EA2-0tX-36">
          <mxGeometry width="160" relative="1" as="geometry">
            <mxPoint x="880" y="400" as="sourcePoint" />
            <mxPoint x="1040" y="400" as="targetPoint" />
          </mxGeometry>
        </mxCell>
        <mxCell id="nIRFVhxDrKVk5EA2-0tX-39" value="Bật/Tắt duyệt thành viên" style="ellipse;whiteSpace=wrap;html=1;" vertex="1" parent="1">
          <mxGeometry x="1000" y="260" width="120" height="60" as="geometry" />
        </mxCell>
        <mxCell id="nIRFVhxDrKVk5EA2-0tX-40" value="&amp;lt;&amp;lt;include&amp;gt;&amp;gt;" style="html=1;verticalAlign=bottom;labelBackgroundColor=none;endArrow=open;endFill=0;dashed=1;rounded=0;exitX=1;exitY=0.5;exitDx=0;exitDy=0;entryX=0;entryY=0.5;entryDx=0;entryDy=0;" edge="1" parent="1" source="nIRFVhxDrKVk5EA2-0tX-26" target="nIRFVhxDrKVk5EA2-0tX-39">
          <mxGeometry width="160" relative="1" as="geometry">
            <mxPoint x="850" y="340" as="sourcePoint" />
            <mxPoint x="980" y="280" as="targetPoint" />
          </mxGeometry>
        </mxCell>
        <mxCell id="nIRFVhxDrKVk5EA2-0tX-41" value="Quản lý Group Admin" style="ellipse;whiteSpace=wrap;html=1;" vertex="1" parent="1">
          <mxGeometry x="1000" y="340" width="120" height="60" as="geometry" />
        </mxCell>
        <mxCell id="nIRFVhxDrKVk5EA2-0tX-42" value="&amp;lt;&amp;lt;include&amp;gt;&amp;gt;" style="html=1;verticalAlign=bottom;labelBackgroundColor=none;endArrow=open;endFill=0;dashed=1;rounded=0;exitX=1;exitY=0.5;exitDx=0;exitDy=0;entryX=-0.007;entryY=0.389;entryDx=0;entryDy=0;entryPerimeter=0;" edge="1" parent="1" source="nIRFVhxDrKVk5EA2-0tX-26" target="nIRFVhxDrKVk5EA2-0tX-41">
          <mxGeometry width="160" relative="1" as="geometry">
            <mxPoint x="850" y="340" as="sourcePoint" />
            <mxPoint x="1010" y="300" as="targetPoint" />
          </mxGeometry>
        </mxCell>
        <mxCell id="nIRFVhxDrKVk5EA2-0tX-43" value="Chọn trưởng nhóm mới" style="ellipse;whiteSpace=wrap;html=1;" vertex="1" parent="1">
          <mxGeometry x="1000" y="420" width="120" height="60" as="geometry" />
        </mxCell>
        <mxCell id="nIRFVhxDrKVk5EA2-0tX-44" value="&amp;lt;&amp;lt;include&amp;gt;&amp;gt;" style="html=1;verticalAlign=bottom;labelBackgroundColor=none;endArrow=open;endFill=0;dashed=1;rounded=0;exitX=1;exitY=0.5;exitDx=0;exitDy=0;entryX=0;entryY=0.5;entryDx=0;entryDy=0;" edge="1" parent="1" source="nIRFVhxDrKVk5EA2-0tX-26" target="nIRFVhxDrKVk5EA2-0tX-43">
          <mxGeometry width="160" relative="1" as="geometry">
            <mxPoint x="850" y="340" as="sourcePoint" />
            <mxPoint x="1009.1600000000003" y="383.34000000000015" as="targetPoint" />
          </mxGeometry>
        </mxCell>
        <mxCell id="nIRFVhxDrKVk5EA2-0tX-46" value="Viết bài/Xem Feed/Tương tác bài viết" style="ellipse;whiteSpace=wrap;html=1;verticalAlign=middle;" vertex="1" parent="1">
          <mxGeometry x="720" y="920" width="120" height="60" as="geometry" />
        </mxCell>
        <mxCell id="nIRFVhxDrKVk5EA2-0tX-48" value="Xem danh sách member" style="ellipse;whiteSpace=wrap;html=1;" vertex="1" parent="1">
          <mxGeometry x="1000" y="520" width="120" height="60" as="geometry" />
        </mxCell>
        <mxCell id="nIRFVhxDrKVk5EA2-0tX-49" value="Thêm/Xóa member" style="ellipse;whiteSpace=wrap;html=1;" vertex="1" parent="1">
          <mxGeometry x="1000" y="600" width="120" height="60" as="geometry" />
        </mxCell>
        <mxCell id="nIRFVhxDrKVk5EA2-0tX-50" value="Duyệt" style="ellipse;whiteSpace=wrap;html=1;" vertex="1" parent="1">
          <mxGeometry x="1000" y="670" width="120" height="60" as="geometry" />
        </mxCell>
        <mxCell id="nIRFVhxDrKVk5EA2-0tX-51" value="&amp;lt;&amp;lt;include&amp;gt;&amp;gt;" style="html=1;verticalAlign=bottom;labelBackgroundColor=none;endArrow=open;endFill=0;dashed=1;rounded=0;exitX=1;exitY=0.5;exitDx=0;exitDy=0;entryX=0;entryY=0.5;entryDx=0;entryDy=0;" edge="1" parent="1" source="nIRFVhxDrKVk5EA2-0tX-28" target="nIRFVhxDrKVk5EA2-0tX-48">
          <mxGeometry width="160" relative="1" as="geometry">
            <mxPoint x="820" y="619.9999999999998" as="sourcePoint" />
            <mxPoint x="980" y="500.0000000000002" as="targetPoint" />
          </mxGeometry>
        </mxCell>
        <mxCell id="nIRFVhxDrKVk5EA2-0tX-52" value="&amp;lt;&amp;lt;include&amp;gt;&amp;gt;" style="html=1;verticalAlign=bottom;labelBackgroundColor=none;endArrow=open;endFill=0;dashed=1;rounded=0;exitX=1;exitY=0.5;exitDx=0;exitDy=0;entryX=0;entryY=0.5;entryDx=0;entryDy=0;" edge="1" parent="1" source="nIRFVhxDrKVk5EA2-0tX-28" target="nIRFVhxDrKVk5EA2-0tX-49">
          <mxGeometry width="160" relative="1" as="geometry">
            <mxPoint x="850" y="669.9999999999998" as="sourcePoint" />
            <mxPoint x="1010" y="599.9999999999998" as="targetPoint" />
          </mxGeometry>
        </mxCell>
        <mxCell id="nIRFVhxDrKVk5EA2-0tX-53" value="&amp;lt;&amp;lt;include&amp;gt;&amp;gt;" style="html=1;verticalAlign=bottom;labelBackgroundColor=none;endArrow=open;endFill=0;dashed=1;rounded=0;exitX=1;exitY=0.5;exitDx=0;exitDy=0;entryX=0;entryY=0.5;entryDx=0;entryDy=0;" edge="1" parent="1" source="nIRFVhxDrKVk5EA2-0tX-28" target="nIRFVhxDrKVk5EA2-0tX-50">
          <mxGeometry width="160" relative="1" as="geometry">
            <mxPoint x="850" y="669.9999999999998" as="sourcePoint" />
            <mxPoint x="1010" y="679.9999999999998" as="targetPoint" />
          </mxGeometry>
        </mxCell>
        <mxCell id="nIRFVhxDrKVk5EA2-0tX-57" value="" style="endArrow=classic;html=1;rounded=0;entryX=0;entryY=0.5;entryDx=0;entryDy=0;" edge="1" parent="1" target="nIRFVhxDrKVk5EA2-0tX-24">
          <mxGeometry width="50" height="50" relative="1" as="geometry">
            <mxPoint x="310" y="280" as="sourcePoint" />
            <mxPoint x="900" y="520" as="targetPoint" />
          </mxGeometry>
        </mxCell>
        <mxCell id="nIRFVhxDrKVk5EA2-0tX-58" value="" style="endArrow=classic;html=1;rounded=0;entryX=0;entryY=0.5;entryDx=0;entryDy=0;exitX=1;exitY=0.3333333333333333;exitDx=0;exitDy=0;exitPerimeter=0;" edge="1" parent="1" source="nIRFVhxDrKVk5EA2-0tX-1" target="nIRFVhxDrKVk5EA2-0tX-32">
          <mxGeometry width="50" height="50" relative="1" as="geometry">
            <mxPoint x="320" y="289.9999999999998" as="sourcePoint" />
            <mxPoint x="600" y="120" as="targetPoint" />
          </mxGeometry>
        </mxCell>
        <mxCell id="nIRFVhxDrKVk5EA2-0tX-59" value="" style="endArrow=classic;html=1;rounded=0;entryX=0;entryY=0.5;entryDx=0;entryDy=0;" edge="1" parent="1" target="nIRFVhxDrKVk5EA2-0tX-26">
          <mxGeometry width="50" height="50" relative="1" as="geometry">
            <mxPoint x="310" y="280" as="sourcePoint" />
            <mxPoint x="600" y="239.99999999999977" as="targetPoint" />
          </mxGeometry>
        </mxCell>
        <mxCell id="nIRFVhxDrKVk5EA2-0tX-60" value="" style="endArrow=classic;html=1;rounded=0;entryX=0;entryY=0.5;entryDx=0;entryDy=0;" edge="1" parent="1" target="nIRFVhxDrKVk5EA2-0tX-28">
          <mxGeometry width="50" height="50" relative="1" as="geometry">
            <mxPoint x="310" y="280" as="sourcePoint" />
            <mxPoint x="600" y="339.9999999999998" as="targetPoint" />
          </mxGeometry>
        </mxCell>
        <mxCell id="nIRFVhxDrKVk5EA2-0tX-61" value="" style="endArrow=classic;html=1;rounded=0;entryX=0;entryY=0.5;entryDx=0;entryDy=0;exitX=1;exitY=0.3333333333333333;exitDx=0;exitDy=0;exitPerimeter=0;" edge="1" parent="1" source="nIRFVhxDrKVk5EA2-0tX-1" target="nIRFVhxDrKVk5EA2-0tX-30">
          <mxGeometry width="50" height="50" relative="1" as="geometry">
            <mxPoint x="320" y="289.9999999999998" as="sourcePoint" />
            <mxPoint x="600" y="669.9999999999998" as="targetPoint" />
          </mxGeometry>
        </mxCell>
        <mxCell id="nIRFVhxDrKVk5EA2-0tX-62" value="Xóa bài viết" style="ellipse;whiteSpace=wrap;html=1;" vertex="1" parent="1">
          <mxGeometry x="1000" y="820" width="120" height="60" as="geometry" />
        </mxCell>
        <mxCell id="nIRFVhxDrKVk5EA2-0tX-63" value="&amp;lt;&amp;lt;include&amp;gt;&amp;gt;" style="html=1;verticalAlign=bottom;labelBackgroundColor=none;endArrow=open;endFill=0;dashed=1;rounded=0;exitX=1;exitY=0.5;exitDx=0;exitDy=0;entryX=0;entryY=0.5;entryDx=0;entryDy=0;" edge="1" parent="1" source="nIRFVhxDrKVk5EA2-0tX-30" target="nIRFVhxDrKVk5EA2-0tX-62">
          <mxGeometry width="160" relative="1" as="geometry">
            <mxPoint x="850" y="669.9999999999998" as="sourcePoint" />
            <mxPoint x="1010" y="749.9999999999998" as="targetPoint" />
          </mxGeometry>
        </mxCell>
        <mxCell id="nIRFVhxDrKVk5EA2-0tX-64" value="Đổi tên nhóm/giới thiệu" style="ellipse;whiteSpace=wrap;html=1;" vertex="1" parent="1">
          <mxGeometry x="1000" y="90" width="120" height="60" as="geometry" />
        </mxCell>
        <mxCell id="nIRFVhxDrKVk5EA2-0tX-65" value="&amp;lt;&amp;lt;include&amp;gt;&amp;gt;" style="html=1;verticalAlign=bottom;labelBackgroundColor=none;endArrow=open;endFill=0;dashed=1;rounded=0;exitX=1;exitY=0.5;exitDx=0;exitDy=0;entryX=0;entryY=0.5;entryDx=0;entryDy=0;" edge="1" parent="1" source="nIRFVhxDrKVk5EA2-0tX-26" target="nIRFVhxDrKVk5EA2-0tX-64">
          <mxGeometry width="160" relative="1" as="geometry">
            <mxPoint x="850" y="339.9999999999998" as="sourcePoint" />
            <mxPoint x="1010" y="220.00000000000023" as="targetPoint" />
          </mxGeometry>
        </mxCell>
        <mxCell id="nIRFVhxDrKVk5EA2-0tX-66" value="" style="endArrow=classic;html=1;rounded=0;entryX=0;entryY=0.5;entryDx=0;entryDy=0;exitX=1;exitY=0.3333333333333333;exitDx=0;exitDy=0;exitPerimeter=0;" edge="1" parent="1" source="nIRFVhxDrKVk5EA2-0tX-2" target="nIRFVhxDrKVk5EA2-0tX-28">
          <mxGeometry width="50" height="50" relative="1" as="geometry">
            <mxPoint x="320" y="289.9999999999998" as="sourcePoint" />
            <mxPoint x="600" y="840" as="targetPoint" />
          </mxGeometry>
        </mxCell>
        <mxCell id="nIRFVhxDrKVk5EA2-0tX-67" value="" style="endArrow=classic;html=1;rounded=0;entryX=0;entryY=0.5;entryDx=0;entryDy=0;" edge="1" parent="1" target="nIRFVhxDrKVk5EA2-0tX-30">
          <mxGeometry width="50" height="50" relative="1" as="geometry">
            <mxPoint x="310" y="780" as="sourcePoint" />
            <mxPoint x="600" y="629.9999999999998" as="targetPoint" />
          </mxGeometry>
        </mxCell>
        <mxCell id="nIRFVhxDrKVk5EA2-0tX-68" value="" style="endArrow=classic;html=1;rounded=0;exitX=1;exitY=0.3333333333333333;exitDx=0;exitDy=0;exitPerimeter=0;entryX=0;entryY=0.5;entryDx=0;entryDy=0;" edge="1" parent="1" source="nIRFVhxDrKVk5EA2-0tX-1" target="nIRFVhxDrKVk5EA2-0tX-46">
          <mxGeometry width="50" height="50" relative="1" as="geometry">
            <mxPoint x="320" y="289.9999999999998" as="sourcePoint" />
            <mxPoint x="580" y="950" as="targetPoint" />
          </mxGeometry>
        </mxCell>
        <mxCell id="nIRFVhxDrKVk5EA2-0tX-69" value="" style="endArrow=classic;html=1;rounded=0;entryX=0;entryY=0.5;entryDx=0;entryDy=0;exitX=1;exitY=0.3333333333333333;exitDx=0;exitDy=0;exitPerimeter=0;" edge="1" parent="1" source="nIRFVhxDrKVk5EA2-0tX-2" target="nIRFVhxDrKVk5EA2-0tX-46">
          <mxGeometry width="50" height="50" relative="1" as="geometry">
            <mxPoint x="320" y="790" as="sourcePoint" />
            <mxPoint x="600" y="840" as="targetPoint" />
          </mxGeometry>
        </mxCell>
        <mxCell id="nIRFVhxDrKVk5EA2-0tX-70" value="" style="endArrow=classic;html=1;rounded=0;entryX=1;entryY=0.5;entryDx=0;entryDy=0;exitX=0;exitY=0.3333333333333333;exitDx=0;exitDy=0;exitPerimeter=0;" edge="1" parent="1" source="nIRFVhxDrKVk5EA2-0tX-3" target="nIRFVhxDrKVk5EA2-0tX-46">
          <mxGeometry width="50" height="50" relative="1" as="geometry">
            <mxPoint x="310" y="950" as="sourcePoint" />
            <mxPoint x="570" y="970" as="targetPoint" />
          </mxGeometry>
        </mxCell>
        <mxCell id="nIRFVhxDrKVk5EA2-0tX-74" value="Mời vào nhóm/Chia sẻ nhóm" style="ellipse;whiteSpace=wrap;html=1;verticalAlign=middle;" vertex="1" parent="1">
          <mxGeometry x="720" y="1000" width="120" height="60" as="geometry" />
        </mxCell>
        <mxCell id="nIRFVhxDrKVk5EA2-0tX-75" value="Rời nhóm" style="ellipse;whiteSpace=wrap;html=1;verticalAlign=middle;" vertex="1" parent="1">
          <mxGeometry x="720" y="1090" width="120" height="60" as="geometry" />
        </mxCell>
        <mxCell id="nIRFVhxDrKVk5EA2-0tX-76" value="Tham gia nhóm" style="ellipse;whiteSpace=wrap;html=1;verticalAlign=middle;" vertex="1" parent="1">
          <mxGeometry x="720" y="1180" width="120" height="60" as="geometry" />
        </mxCell>
        <mxCell id="nIRFVhxDrKVk5EA2-0tX-78" value="" style="endArrow=classic;html=1;rounded=0;entryX=1;entryY=0.5;entryDx=0;entryDy=0;exitX=0;exitY=0.3333333333333333;exitDx=0;exitDy=0;exitPerimeter=0;" edge="1" parent="1" source="nIRFVhxDrKVk5EA2-0tX-3" target="nIRFVhxDrKVk5EA2-0tX-76">
          <mxGeometry width="50" height="50" relative="1" as="geometry">
            <mxPoint x="1480" y="1060" as="sourcePoint" />
            <mxPoint x="730.0000000000105" y="960" as="targetPoint" />
          </mxGeometry>
        </mxCell>
        <mxCell id="nIRFVhxDrKVk5EA2-0tX-79" value="" style="endArrow=classic;html=1;rounded=0;entryX=1;entryY=0.5;entryDx=0;entryDy=0;exitX=0;exitY=0.3333333333333333;exitDx=0;exitDy=0;exitPerimeter=0;" edge="1" parent="1" source="nIRFVhxDrKVk5EA2-0tX-3" target="nIRFVhxDrKVk5EA2-0tX-75">
          <mxGeometry width="50" height="50" relative="1" as="geometry">
            <mxPoint x="1470" y="1040" as="sourcePoint" />
            <mxPoint x="730.0000000000105" y="1220" as="targetPoint" />
          </mxGeometry>
        </mxCell>
        <mxCell id="nIRFVhxDrKVk5EA2-0tX-80" value="" style="endArrow=classic;html=1;rounded=0;entryX=1;entryY=0.5;entryDx=0;entryDy=0;exitX=0;exitY=0.3333333333333333;exitDx=0;exitDy=0;exitPerimeter=0;" edge="1" parent="1" source="nIRFVhxDrKVk5EA2-0tX-3" target="nIRFVhxDrKVk5EA2-0tX-74">
          <mxGeometry width="50" height="50" relative="1" as="geometry">
            <mxPoint x="1440" y="1030" as="sourcePoint" />
            <mxPoint x="730.0000000000105" y="1130" as="targetPoint" />
          </mxGeometry>
        </mxCell>
        <mxCell id="nIRFVhxDrKVk5EA2-0tX-81" value="" style="endArrow=classic;html=1;rounded=0;entryX=0;entryY=0.5;entryDx=0;entryDy=0;" edge="1" parent="1" target="nIRFVhxDrKVk5EA2-0tX-75">
          <mxGeometry width="50" height="50" relative="1" as="geometry">
            <mxPoint x="310" y="780" as="sourcePoint" />
            <mxPoint x="730.0000000000105" y="960" as="targetPoint" />
          </mxGeometry>
        </mxCell>
        <mxCell id="nIRFVhxDrKVk5EA2-0tX-82" value="&amp;lt;&amp;lt;extend&amp;gt;&amp;gt;" style="html=1;verticalAlign=bottom;labelBackgroundColor=none;endArrow=open;endFill=0;dashed=1;rounded=0;exitX=1;exitY=0.5;exitDx=0;exitDy=0;entryX=1;entryY=0;entryDx=0;entryDy=0;" edge="1" parent="1" source="nIRFVhxDrKVk5EA2-0tX-43" target="nIRFVhxDrKVk5EA2-0tX-76">
          <mxGeometry width="160" relative="1" as="geometry">
            <mxPoint x="790" y="210" as="sourcePoint" />
            <mxPoint x="790" y="150" as="targetPoint" />
            <Array as="points">
              <mxPoint x="1410" y="740" />
            </Array>
          </mxGeometry>
        </mxCell>
        <mxCell id="nIRFVhxDrKVk5EA2-0tX-83" value="&amp;lt;&amp;lt;extend&amp;gt;&amp;gt;" style="html=1;verticalAlign=bottom;labelBackgroundColor=none;endArrow=open;endFill=0;dashed=1;rounded=0;exitX=1;exitY=0.5;exitDx=0;exitDy=0;entryX=1;entryY=0;entryDx=0;entryDy=0;" edge="1" parent="1" source="nIRFVhxDrKVk5EA2-0tX-41" target="nIRFVhxDrKVk5EA2-0tX-76">
          <mxGeometry width="160" relative="1" as="geometry">
            <mxPoint x="1130" y="460" as="sourcePoint" />
            <mxPoint x="832.4264068711777" y="1198.7867965644114" as="targetPoint" />
            <Array as="points">
              <mxPoint x="1510" y="750" />
            </Array>
          </mxGeometry>
        </mxCell>
        <mxCell id="nIRFVhxDrKVk5EA2-0tX-85" value="Xem thông tin nhóm" style="ellipse;whiteSpace=wrap;html=1;verticalAlign=middle;" vertex="1" parent="1">
          <mxGeometry x="720" y="1270" width="120" height="60" as="geometry" />
        </mxCell>
        <mxCell id="nIRFVhxDrKVk5EA2-0tX-87" value="" style="endArrow=classic;html=1;rounded=0;entryX=0;entryY=0.5;entryDx=0;entryDy=0;exitX=1;exitY=0.3333333333333333;exitDx=0;exitDy=0;exitPerimeter=0;" edge="1" parent="1" source="nIRFVhxDrKVk5EA2-0tX-2" target="nIRFVhxDrKVk5EA2-0tX-85">
          <mxGeometry width="50" height="50" relative="1" as="geometry">
            <mxPoint x="320" y="790" as="sourcePoint" />
            <mxPoint x="730" y="1130" as="targetPoint" />
          </mxGeometry>
        </mxCell>
        <mxCell id="nIRFVhxDrKVk5EA2-0tX-88" value="" style="endArrow=classic;html=1;rounded=0;entryX=1;entryY=0.5;entryDx=0;entryDy=0;exitX=0;exitY=0.3333333333333333;exitDx=0;exitDy=0;exitPerimeter=0;" edge="1" parent="1" source="nIRFVhxDrKVk5EA2-0tX-3" target="nIRFVhxDrKVk5EA2-0tX-85">
          <mxGeometry width="50" height="50" relative="1" as="geometry">
            <mxPoint x="1500" y="1090" as="sourcePoint" />
            <mxPoint x="850" y="1220" as="targetPoint" />
          </mxGeometry>
        </mxCell>
        <mxCell id="nIRFVhxDrKVk5EA2-0tX-91" value="Rời nhóm" style="ellipse;whiteSpace=wrap;html=1;verticalAlign=middle;" vertex="1" parent="1">
          <mxGeometry x="710" y="420" width="120" height="60" as="geometry" />
        </mxCell>
        <mxCell id="nIRFVhxDrKVk5EA2-0tX-92" value="" style="endArrow=classic;html=1;rounded=0;entryX=0;entryY=0.333;entryDx=0;entryDy=0;exitX=1;exitY=0.3333333333333333;exitDx=0;exitDy=0;exitPerimeter=0;entryPerimeter=0;" edge="1" parent="1" source="nIRFVhxDrKVk5EA2-0tX-1" target="nIRFVhxDrKVk5EA2-0tX-91">
          <mxGeometry width="50" height="50" relative="1" as="geometry">
            <mxPoint x="320" y="290" as="sourcePoint" />
            <mxPoint x="720" y="360" as="targetPoint" />
          </mxGeometry>
        </mxCell>
        <mxCell id="nIRFVhxDrKVk5EA2-0tX-93" value="&amp;lt;&amp;lt;extend&amp;gt;&amp;gt;" style="html=1;verticalAlign=bottom;labelBackgroundColor=none;endArrow=open;endFill=0;dashed=1;rounded=0;entryX=1;entryY=0.5;entryDx=0;entryDy=0;exitX=0;exitY=1;exitDx=0;exitDy=0;" edge="1" parent="1" source="nIRFVhxDrKVk5EA2-0tX-43" target="nIRFVhxDrKVk5EA2-0tX-91">
          <mxGeometry width="160" relative="1" as="geometry">
            <mxPoint x="740" y="520" as="sourcePoint" />
            <mxPoint x="900" y="520" as="targetPoint" />
          </mxGeometry>
        </mxCell>
        <mxCell id="nIRFVhxDrKVk5EA2-0tX-96" value="Chia sẻ nhóm" style="ellipse;whiteSpace=wrap;html=1;" vertex="1" parent="1">
          <mxGeometry x="1000" y="740" width="120" height="60" as="geometry" />
        </mxCell>
        <mxCell id="nIRFVhxDrKVk5EA2-0tX-97" value="&amp;lt;&amp;lt;include&amp;gt;&amp;gt;" style="html=1;verticalAlign=bottom;labelBackgroundColor=none;endArrow=open;endFill=0;dashed=1;rounded=0;exitX=1;exitY=0.5;exitDx=0;exitDy=0;entryX=0;entryY=0.5;entryDx=0;entryDy=0;" edge="1" parent="1" source="nIRFVhxDrKVk5EA2-0tX-28" target="nIRFVhxDrKVk5EA2-0tX-96">
          <mxGeometry width="160" relative="1" as="geometry">
            <mxPoint x="850.0000000000073" y="630" as="sourcePoint" />
            <mxPoint x="1009.9999999999995" y="710" as="targetPoint" />
          </mxGeometry>
        </mxCell>
      </root>
    </mxGraphModel>
  </diagram>
</mxfile>
